<?xml version="1.0" encoding="iso-8859-1"?>
<!-- Generator: Adobe Illustrator 22.1.0, SVG Export Plug-In . SVG Version: 6.00 Build 0)  -->
<svg xmlns="http://www.w3.org/2000/svg" xmlns:xlink="http://www.w3.org/1999/xlink" version="1.1" id="Layer_1_1_" x="0px" y="0px" viewBox="0 0 64 64" style="enable-background:new 0 0 64 64;" xml:space="preserve" width="512" height="512">
<linearGradient id="SVGID_1_" gradientUnits="userSpaceOnUse" x1="32" y1="59" x2="32" y2="5">
	<stop offset="0" style="stop-color:#9F2FFF"/>
	<stop offset="1" style="stop-color:#0BB1D3"/>
</linearGradient>
<path style="fill:url(#SVGID_1_);" d="M59,9H31V5h-8v4h-2V5h-8v4h-2.5L7,13.667V15H3v6h4v8.382l-6,3V49h6v2h4.059  c0.499,4.493,4.316,8,8.941,8s8.442-3.507,8.941-8h8.118c0.499,4.493,4.316,8,8.941,8s8.442-3.507,8.941-8H59V21h4v-6h-4V9z M25,7h4  v2h-4V7z M15,7h4v2h-4V7z M5,19v-2h2v2H5z M3,47V33.618l4-2V47H3z M20,57c-3.519,0-6.432-2.613-6.92-6h2.021  c0.465,2.279,2.484,4,4.899,4s4.434-1.721,4.899-4h2.021C26.432,54.387,23.519,57,20,57z M17.184,51h5.631  c-0.414,1.161-1.514,2-2.816,2S17.598,52.161,17.184,51z M46,57c-3.519,0-6.432-2.613-6.92-6h2.021c0.465,2.279,2.484,4,4.899,4  s4.434-1.721,4.899-4h2.021C52.432,54.387,49.519,57,46,57z M43.184,51h5.631c-0.414,1.161-1.514,2-2.816,2S43.598,52.161,43.184,51  z M57,49H9V14.333L11.5,11H57V49z M61,17v2h-2v-2H61z M55,13H27v18h28V13z M53,21H43v-6h10V21z M29,29V15h12v8h12v6H29z M35,17  c-2.206,0-4,1.794-4,4s1.794,4,4,4s4-1.794,4-4S37.206,17,35,17z M35,23c-1.103,0-2-0.897-2-2s0.897-2,2-2s2,0.897,2,2  S36.103,23,35,23z M45,19v-2h2v2H45z M51,19h-2v-2h2V19z M49,25h2v2h-2V25z M45,25h2v2h-2V25z M41,25h2v2h-2V25z M15.488,28.372  c-0.202,0.607-0.099,1.28,0.275,1.799C16.139,30.69,16.744,31,17.384,31c0.761,0,1.445-0.423,1.786-1.104L24.618,19h-4.23l2-6  h-7.132l-3.6,12h4.956L15.488,28.372z M14.344,23l2.4-8h2.868l-2,6h3.771l-3.997,8.004L19.388,23H14.344z M38,33H14  c-1.654,0-3,1.346-3,3v8c0,1.654,1.346,3,3,3h24c1.654,0,3-1.346,3-3v-8C41,34.346,39.654,33,38,33z M38,45H14c-0.552,0-1-0.449-1-1  v-8c0-0.551,0.448-1,1-1h24c0.552,0,1,0.449,1,1v1h-3c-1.654,0-3,1.346-3,3s1.346,3,3,3h3v1C39,44.551,38.552,45,38,45z M39,39v2h-3  c-0.552,0-1-0.449-1-1s0.448-1,1-1H39z M45,47h10V33H45V47z M47,35h6v10h-6V35z"/>
</svg>
