<svg id="svg" version="1.1" xmlns="http://www.w3.org/2000/svg" enable-background="new 0 0 64 64" xmlns:xlink="http://www.w3.org/1999/xlink" width="512" height="512" viewBox="0, 0, 400,400">
	<linearGradient id="SVGID_1_" gradientUnits="userSpaceOnUse" x1="0%" y1="0%" x2="100%" y2="0%">
		<stop offset="0" stop-color="#9f2fff"/>
		<stop offset="1" stop-color="#0bb1d3"/>
	</linearGradient>
	<g id="svgg">
		<path
			id="path0" d="M133.333 189.157 C 128.483 190.270,125.464 191.716,121.167 194.984 C 118.042 197.361,118.051 197.434,122.680 207.111 C 125.454 212.911,125.244 212.702,127.644 212.060 C 128.720 211.773,130.520 211.439,131.644 211.318 C 133.179 211.153,133.695 210.956,133.713 210.527 C 133.727 210.213,133.787 209.556,133.848 209.067 C 133.908 208.578,134.067 206.658,134.200 204.800 C 134.427 201.629,135.912 191.313,136.382 189.640 C 136.691 188.538,136.302 188.476,133.333 189.157 M141.156 193.659 C 138.759 194.036,138.806 193.989,138.366 196.525 C 137.865 199.417,137.252 206.328,137.247 209.130 L 137.244 211.150 139.111 211.538 C 140.138 211.751,141.834 212.322,142.880 212.807 C 145.349 213.952,145.090 214.050,146.870 211.289 C 148.206 209.216,154.967 200.146,157.724 196.729 L 158.641 195.592 157.402 195.074 C 154.169 193.723,145.527 192.970,141.156 193.659 M110.084 196.649 C 106.708 200.238,102.082 208.508,102.640 209.956 C 102.826 210.436,107.767 214.098,112.469 217.239 L 116.316 219.809 117.826 218.233 C 118.656 217.367,120.094 216.136,121.021 215.498 C 121.947 214.861,122.649 214.233,122.580 214.103 C 119.990 209.244,116.615 201.637,114.312 195.467 C 113.476 193.229,113.238 193.296,110.084 196.649 M154.586 205.801 C 152.927 208.086,150.734 211.208,149.711 212.739 L 147.852 215.522 149.938 217.717 C 151.085 218.924,152.350 220.371,152.750 220.932 L 153.476 221.953 158.960 219.292 C 165.434 216.150,165.891 215.947,170.400 214.199 C 174.508 212.608,174.426 212.882,171.626 210.041 C 168.199 206.562,164.934 204.506,159.423 202.357 L 157.603 201.646 154.586 205.801 M95.634 211.945 C 94.182 216.822,93.826 224.291,94.866 228.077 C 95.203 229.305,97.557 229.825,104.533 230.216 C 106.587 230.331,109.091 230.509,110.099 230.612 L 111.932 230.798 112.326 228.958 C 112.543 227.947,113.119 226.124,113.605 224.909 C 114.713 222.139,114.806 222.498,112.622 221.113 C 109.457 219.106,102.723 214.222,99.733 211.764 C 96.259 208.908,96.543 208.895,95.634 211.945 M128.335 215.213 C 107.715 222.243,112.491 252.444,134.222 252.444 C 146.827 252.444,155.923 241.182,153.074 229.103 C 150.529 218.309,138.713 211.675,128.335 215.213 M166.222 219.348 C 162.232 221.027,156.480 223.784,155.616 224.433 C 154.987 224.905,154.989 224.990,155.669 227.038 C 156.055 228.203,156.483 229.991,156.618 231.012 C 156.906 233.188,156.179 232.941,164.800 233.790 C 167.929 234.098,172.388 234.669,174.709 235.059 C 179.691 235.895,179.372 236.054,178.681 233.072 C 177.584 228.344,175.198 223.593,171.846 219.467 C 170.370 217.649,170.267 217.647,166.222 219.348 M89.785 233.477 C 90.851 238.228,92.194 241.304,95.075 245.597 C 98.023 249.992,97.099 250.003,106.958 245.458 C 114.119 242.156,113.623 242.570,112.933 240.476 C 112.620 239.530,112.243 237.643,112.094 236.284 L 111.822 233.813 110.222 233.729 C 102.711 233.333,100.409 233.082,90.437 231.567 L 89.318 231.397 89.785 233.477 M156.267 237.422 C 155.990 238.846,155.033 241.776,154.406 243.124 C 154.107 243.766,153.923 244.342,153.998 244.404 C 154.072 244.465,155.413 245.368,156.978 246.409 C 160.640 248.848,166.190 253.040,169.297 255.714 C 172.165 258.183,172.115 258.194,173.090 254.858 C 174.528 249.937,174.792 242.367,173.660 238.528 C 173.455 237.832,172.611 237.690,164.444 236.976 C 156.243 236.260,156.497 236.246,156.267 237.422 M111.644 246.790 C 107.597 248.714,100.369 251.763,96.989 252.972 C 93.769 254.124,93.767 254.064,97.121 257.265 C 100.654 260.637,106.509 264.093,109.803 264.752 C 110.990 264.989,114.228 261.312,118.742 254.598 L 120.822 251.504 118.717 249.444 C 117.560 248.310,116.340 246.922,116.008 246.358 C 115.246 245.068,115.270 245.066,111.644 246.790 M150.756 248.551 C 150.071 249.341,148.751 250.554,147.822 251.246 C 145.759 252.784,145.751 252.425,147.939 257.013 C 150.071 261.483,151.999 266.011,153.600 270.305 L 154.757 273.411 156.169 272.292 C 159.313 269.802,162.869 264.622,164.792 259.733 C 165.330 258.364,165.839 257.129,165.922 256.988 C 166.154 256.595,154.045 247.874,152.438 247.276 C 152.197 247.187,151.440 247.760,150.756 248.551 M120.889 256.625 C 118.019 260.914,112.814 267.935,111.088 269.845 L 109.793 271.279 110.808 271.665 C 115.486 273.444,121.376 274.027,127.358 273.303 L 129.738 273.014 130.107 271.174 C 130.310 270.162,130.638 267.173,130.836 264.533 C 131.035 261.893,131.286 258.813,131.394 257.689 C 131.582 255.740,131.553 255.644,130.773 255.624 C 130.078 255.607,125.427 254.140,123.733 253.404 C 123.345 253.235,122.573 254.109,120.889 256.625 M141.156 254.827 C 140.471 255.128,138.711 255.562,137.245 255.791 L 134.579 256.208 134.161 262.140 C 133.931 265.402,133.411 270.158,133.005 272.708 C 132.035 278.796,131.973 278.365,133.778 278.014 C 139.713 276.860,144.252 274.685,148.743 270.846 L 150.108 269.680 148.118 265.117 C 144.705 257.291,143.200 254.221,142.793 254.251 C 142.577 254.267,141.840 254.526,141.156 254.827 " fill="url(#SVGID_1_)" />
		<path
			id="path1" d="M324.622 91.299 C 324.622 91.521,316.605 102.637,315.462 104.000 C 315.298 104.196,314.005 105.956,312.589 107.911 C 311.173 109.867,309.715 111.867,309.348 112.356 C 308.798 113.087,304.626 118.798,297.460 128.626 C 296.853 129.459,295.264 131.619,293.930 133.426 C 284.167 146.652,281.594 150.278,281.680 150.688 C 281.759 151.068,284.762 151.151,297.538 151.124 C 307.079 151.104,313.219 151.220,313.097 151.418 C 312.985 151.599,312.664 152.763,312.383 154.006 C 312.102 155.250,311.537 157.467,311.128 158.933 C 309.820 163.615,309.430 165.050,308.086 170.133 C 306.140 177.490,305.873 178.486,305.299 180.533 C 305.011 181.560,304.847 182.400,304.934 182.400 C 305.021 182.400,304.898 182.760,304.662 183.200 C 304.426 183.640,304.008 184.960,303.734 186.133 C 302.924 189.603,302.320 192.113,302.046 193.156 C 301.826 193.994,301.896 194.133,302.539 194.133 C 302.952 194.133,303.289 193.994,303.289 193.824 C 303.289 193.518,304.820 191.323,308.902 185.778 C 310.795 183.206,316.392 175.508,321.827 168.000 C 322.960 166.436,324.706 164.036,325.707 162.667 C 327.640 160.025,333.285 152.241,339.733 143.329 C 341.884 140.356,344.084 137.348,344.622 136.646 C 346.657 133.989,346.867 134.049,335.556 134.085 C 330.031 134.103,323.175 134.221,320.319 134.347 L 315.127 134.578 315.574 132.800 C 315.821 131.822,316.436 129.342,316.943 127.289 C 317.449 125.236,318.019 123.076,318.209 122.489 C 318.400 121.902,318.787 120.382,319.069 119.111 C 320.220 113.938,324.915 95.434,325.723 92.891 C 325.924 92.257,325.990 91.577,325.868 91.380 C 325.608 90.960,324.622 90.896,324.622 91.299 M49.589 112.439 C 49.495 112.686,49.459 152.249,49.509 200.356 L 49.600 287.822 126.489 287.912 L 203.378 288.002 203.378 254.579 L 203.378 221.156 197.511 221.156 L 191.644 221.156 191.644 198.971 C 191.644 179.070,191.587 176.765,191.082 176.571 C 190.347 176.289,79.520 176.289,78.785 176.571 C 78.280 176.765,78.222 179.070,78.222 198.971 L 78.222 221.156 73.601 221.156 L 68.980 221.156 68.890 166.667 L 68.800 112.178 59.280 112.083 C 51.856 112.009,49.722 112.087,49.589 112.439 M239.153 174.774 C 239.032 175.089,238.933 178.454,238.933 182.251 L 238.933 189.156 221.511 189.156 L 204.089 189.156 204.089 200.000 L 204.089 210.844 221.511 210.844 L 238.933 210.844 238.939 217.867 C 238.942 221.729,239.075 225.094,239.234 225.345 C 239.672 226.035,240.295 225.715,251.378 219.110 C 252.844 218.236,254.924 217.040,256.000 216.452 C 257.076 215.864,259.678 214.362,261.782 213.114 C 263.887 211.866,265.759 210.844,265.942 210.844 C 266.126 210.844,266.432 210.564,266.624 210.222 C 266.816 209.880,267.060 209.626,267.167 209.658 C 267.566 209.776,268.800 209.329,268.800 209.067 C 268.800 208.917,269.080 208.697,269.422 208.577 C 271.330 207.913,283.733 200.479,283.733 200.000 C 283.733 199.521,271.330 192.087,269.422 191.423 C 269.080 191.303,268.800 191.083,268.800 190.933 C 268.800 190.701,267.491 190.199,267.054 190.264 C 266.974 190.276,266.766 190.032,266.592 189.721 C 266.418 189.410,266.126 189.156,265.942 189.156 C 265.759 189.156,263.887 188.134,261.782 186.886 C 259.678 185.638,257.076 184.136,256.000 183.548 C 254.924 182.960,252.844 181.764,251.378 180.890 C 239.940 174.073,239.506 173.856,239.153 174.774 M137.013 188.800 C 136.935 189.562,135.887 195.761,135.480 197.867 C 135.291 198.844,134.961 201.964,134.748 204.800 C 134.202 212.054,134.561 211.353,131.122 211.880 C 129.505 212.127,127.593 212.533,126.874 212.781 C 126.154 213.029,125.419 213.134,125.239 213.016 C 124.523 212.544,119.180 200.924,118.249 197.815 C 117.986 196.938,118.281 196.590,121.176 194.367 C 126.625 190.182,137.251 186.447,137.013 188.800 M152.599 193.250 C 155.310 193.811,158.533 194.805,159.064 195.242 C 159.233 195.382,158.101 197.070,156.548 198.993 C 153.440 202.840,149.732 207.844,147.041 211.822 C 145.045 214.773,145.281 214.666,143.245 213.540 C 141.835 212.761,140.833 212.430,137.867 211.762 L 136.889 211.542 136.889 207.979 C 136.889 204.172,137.364 199.206,138.061 195.733 L 138.489 193.600 140.800 193.199 C 144.190 192.611,149.626 192.634,152.599 193.250 M115.163 196.356 C 115.811 198.164,116.551 200.124,116.807 200.711 C 117.062 201.298,117.717 202.818,118.262 204.089 C 118.808 205.360,120.151 208.200,121.248 210.400 C 123.403 214.724,123.403 214.726,121.686 215.606 C 121.049 215.932,119.666 217.074,118.613 218.144 C 117.561 219.214,116.537 220.089,116.339 220.089 C 115.437 220.089,102.587 211.103,102.245 210.233 C 101.455 208.221,106.785 198.920,110.926 195.086 C 113.745 192.476,113.775 192.485,115.163 196.356 M159.993 202.034 C 166.124 204.502,175.031 211.084,174.479 212.740 C 174.318 213.225,174.146 213.305,168.178 215.670 C 165.342 216.794,160.862 218.804,158.222 220.137 L 153.422 222.560 152.711 221.594 C 152.320 221.063,150.922 219.497,149.604 218.114 L 147.207 215.598 149.967 211.532 C 154.077 205.475,157.240 201.244,157.659 201.244 C 157.863 201.244,158.914 201.600,159.993 202.034 M99.022 210.552 C 101.835 212.972,108.205 217.697,112.089 220.246 C 115.307 222.358,115.524 222.654,114.670 223.781 C 114.199 224.404,113.069 227.805,112.543 230.185 L 112.316 231.215 107.625 230.970 C 101.058 230.625,95.211 229.785,94.696 229.110 C 93.533 227.588,93.676 216.121,94.905 212.344 C 96.295 208.073,96.192 208.118,99.022 210.552 M138.497 214.237 C 153.459 217.707,159.171 235.368,148.942 246.531 C 140.339 255.920,125.074 254.974,118.041 244.617 C 108.029 229.874,121.252 210.238,138.497 214.237 M172.136 219.111 C 175.801 223.715,178.207 228.527,179.347 233.532 C 180.004 236.417,180.099 236.385,173.750 235.424 C 168.639 234.651,163.681 234.073,159.040 233.709 C 156.179 233.485,156.399 233.752,155.877 229.867 C 155.746 228.889,155.340 227.323,154.975 226.387 C 154.610 225.451,154.311 224.633,154.311 224.569 C 154.311 224.335,163.365 220.002,165.992 218.980 C 167.487 218.398,169.031 217.780,169.422 217.607 C 170.531 217.117,170.563 217.135,172.136 219.111 M297.067 222.469 C 294.524 223.521,292.077 224.535,291.629 224.722 C 291.180 224.908,290.420 225.160,289.940 225.280 C 289.460 225.401,289.067 225.642,289.067 225.816 C 289.067 225.991,288.868 226.133,288.626 226.133 C 287.739 226.133,285.158 227.391,285.157 227.823 C 285.156 228.068,286.087 228.954,287.225 229.792 L 289.295 231.315 287.567 233.436 C 279.413 243.438,279.659 250.681,288.585 263.467 C 294.428 271.836,294.229 276.043,287.626 283.733 C 286.535 285.004,285.537 286.223,285.408 286.441 C 285.146 286.882,289.285 291.200,289.969 291.200 C 290.208 291.200,291.178 290.280,292.127 289.156 C 293.075 288.031,293.949 287.031,294.069 286.933 C 298.548 283.292,301.058 272.779,298.697 267.556 C 298.520 267.164,298.014 266.044,297.572 265.067 C 297.130 264.089,295.456 261.289,293.853 258.844 C 286.844 248.155,286.806 244.730,293.616 237.002 L 294.787 235.673 296.282 236.892 C 300.252 240.129,299.789 241.083,301.727 225.657 C 302.435 220.017,302.643 220.159,297.067 222.469 M320.916 220.755 C 320.799 220.945,320.225 221.206,319.640 221.334 C 319.056 221.463,318.578 221.715,318.578 221.895 C 318.578 222.075,318.238 222.222,317.822 222.222 C 317.156 222.222,315.991 222.663,311.591 224.579 C 310.974 224.847,310.366 225.067,310.238 225.067 C 310.110 225.067,309.334 225.364,308.514 225.727 C 307.693 226.091,306.502 226.610,305.867 226.881 C 304.256 227.568,304.406 228.043,306.781 229.792 L 308.851 231.315 307.127 233.436 C 305.050 235.990,302.718 239.833,302.374 241.267 C 302.237 241.841,301.946 242.536,301.729 242.810 C 301.497 243.103,301.336 244.791,301.339 246.899 C 301.349 252.353,302.348 254.806,307.995 263.236 C 309.547 265.553,310.987 267.953,311.194 268.569 C 311.401 269.185,311.732 269.896,311.931 270.150 C 313.574 272.247,311.842 277.988,308.225 282.435 C 306.977 283.970,305.653 285.599,305.282 286.055 L 304.609 286.884 306.877 289.042 C 308.124 290.229,309.324 291.200,309.543 291.200 C 310.373 291.200,317.511 282.122,317.511 281.066 C 317.511 280.947,317.836 280.136,318.234 279.263 C 320.705 273.839,319.196 267.443,313.415 258.837 C 306.572 248.649,306.458 244.346,312.852 237.464 L 314.489 235.701 316.442 237.317 C 319.385 239.752,319.440 239.706,320.197 234.133 C 321.200 226.752,321.760 222.951,321.966 222.129 C 322.191 221.233,321.323 220.097,320.916 220.755 M338.665 221.530 C 337.493 222.090,336.354 222.555,336.134 222.563 C 335.765 222.577,333.881 223.332,331.146 224.562 C 330.530 224.840,329.921 225.067,329.793 225.067 C 329.666 225.067,328.890 225.364,328.069 225.727 C 327.249 226.091,326.058 226.610,325.422 226.881 C 323.811 227.568,323.961 228.043,326.347 229.799 L 328.426 231.330 327.228 232.732 C 324.456 235.972,321.737 240.688,321.230 243.134 C 319.940 249.353,321.180 253.657,326.628 261.867 C 330.562 267.794,330.507 267.699,331.222 269.967 C 331.575 271.085,331.969 272.000,332.097 272.000 C 332.226 272.000,332.215 272.680,332.073 273.511 C 331.398 277.459,329.961 280.134,326.237 284.378 C 325.153 285.613,324.267 286.695,324.267 286.783 C 324.267 287.133,328.685 291.200,329.065 291.200 C 329.480 291.200,329.620 291.054,332.482 287.641 C 339.372 279.427,340.489 272.705,336.366 264.267 C 335.960 263.436,335.498 262.756,335.340 262.756 C 335.181 262.756,335.050 262.556,335.047 262.311 C 335.044 262.067,333.658 259.805,331.966 257.284 C 330.273 254.764,328.888 252.524,328.887 252.307 C 328.885 252.089,328.630 251.431,328.319 250.844 C 326.484 247.382,328.129 242.244,332.759 236.970 L 333.875 235.699 335.977 237.316 C 339.050 239.680,339.262 239.520,339.723 234.489 C 339.867 232.924,340.195 230.524,340.453 229.156 C 341.110 225.670,341.477 220.931,341.107 220.702 C 340.936 220.597,339.837 220.969,338.665 221.530 M91.378 231.146 C 94.045 231.768,100.135 232.505,105.956 232.909 C 112.794 233.384,112.212 233.128,112.501 235.792 C 112.636 237.031,112.996 238.952,113.301 240.061 C 113.606 241.170,113.797 242.253,113.725 242.469 C 113.502 243.140,99.361 249.600,98.117 249.600 C 95.850 249.600,89.922 238.378,89.055 232.444 C 88.777 230.543,88.782 230.541,91.378 231.146 M165.847 236.643 C 174.090 237.296,174.055 237.284,174.348 239.543 C 175.217 246.248,174.948 250.624,173.359 255.637 C 172.335 258.867,172.267 258.894,170.097 256.969 C 167.349 254.532,160.848 249.590,157.156 247.132 C 155.298 245.895,153.655 244.773,153.504 244.639 C 153.354 244.505,153.695 243.366,154.262 242.109 C 154.830 240.851,155.411 239.102,155.554 238.222 C 155.896 236.117,156.291 235.679,157.649 235.900 C 158.258 235.999,161.947 236.333,165.847 236.643 M116.076 245.663 C 116.372 246.236,117.687 247.767,118.997 249.065 C 121.751 251.791,121.845 251.026,118.104 256.326 C 113.557 262.766,111.177 265.433,110.083 265.314 C 106.954 264.976,99.334 260.397,96.040 256.875 C 93.504 254.164,93.403 253.715,95.200 253.137 C 97.754 252.316,106.163 248.816,110.578 246.738 C 115.808 244.276,115.399 244.356,116.076 245.663 M157.006 249.648 C 162.346 253.293,166.400 256.335,166.400 256.698 C 166.400 260.097,157.142 273.778,154.841 273.778 C 154.601 273.778,153.884 272.378,153.246 270.667 C 151.635 266.344,149.703 261.802,147.366 256.848 L 145.377 252.631 146.733 251.580 C 147.479 251.003,148.889 249.695,149.867 248.676 C 152.164 246.279,152.048 246.263,157.006 249.648 M125.199 253.477 C 126.055 253.849,127.916 254.430,129.333 254.769 L 131.911 255.385 131.907 256.670 C 131.901 258.363,130.921 270.019,130.639 271.755 C 130.322 273.709,129.587 273.901,122.311 273.930 C 116.395 273.954,115.940 273.906,113.067 272.950 C 109.116 271.634,109.126 271.650,110.902 269.435 C 113.662 265.994,118.220 259.775,120.546 256.279 C 123.081 252.469,122.997 252.519,125.199 253.477 M145.124 257.333 C 148.399 264.340,148.703 265.013,149.693 267.447 L 150.678 269.866 149.028 271.227 C 144.878 274.652,140.949 276.735,136.406 277.918 C 131.894 279.094,131.406 279.061,131.698 277.600 C 132.475 273.719,133.377 266.421,133.682 261.545 C 134.096 254.913,133.677 255.721,136.920 255.298 C 138.370 255.109,140.356 254.637,141.333 254.249 C 142.311 253.862,143.162 253.537,143.225 253.528 C 143.287 253.519,144.142 255.231,145.124 257.333 " fill="url(#SVGID_1_)" />
		<path 
			id="path2" d="M93.956 223.822 C 93.960 224.604,94.033 224.883,94.118 224.440 C 94.203 223.998,94.200 223.358,94.111 223.018 C 94.022 222.678,93.952 223.040,93.956 223.822 M108.178 233.490 C 108.520 233.579,109.080 233.579,109.422 233.490 C 109.764 233.400,109.484 233.327,108.800 233.327 C 108.116 233.327,107.836 233.400,108.178 233.490 M174.667 246.222 C 174.671 247.004,174.744 247.283,174.829 246.840 C 174.914 246.398,174.911 245.758,174.822 245.418 C 174.733 245.078,174.663 245.440,174.667 246.222 M149.689 249.067 C 148.825 249.947,148.199 250.667,148.296 250.667 C 148.394 250.667,149.181 249.947,150.044 249.067 C 150.908 248.187,151.535 247.467,151.437 247.467 C 151.339 247.467,150.553 248.187,149.689 249.067 M117.689 248.289 C 117.689 248.350,118.209 248.870,118.844 249.445 L 120.000 250.489 118.956 249.333 C 117.982 248.256,117.689 248.014,117.689 248.289 M157.855 270.844 L 155.911 272.889 157.956 270.945 C 159.855 269.140,160.163 268.800,159.899 268.800 C 159.843 268.800,158.923 269.720,157.855 270.844 M120.267 274.037 C 121.000 274.113,122.200 274.113,122.933 274.037 C 123.667 273.960,123.067 273.897,121.600 273.897 C 120.133 273.897,119.533 273.960,120.267 274.037 " fill="url(#SVGID_1_)" />
		<path 
			id="path3" d="M144.813 193.330 C 145.945 193.401,147.705 193.400,148.724 193.328 C 149.744 193.257,148.818 193.199,146.667 193.200 C 144.516 193.200,143.681 193.259,144.813 193.330 M140.178 193.667 C 140.520 193.757,141.080 193.757,141.422 193.667 C 141.764 193.578,141.484 193.505,140.800 193.505 C 140.116 193.505,139.836 193.578,140.178 193.667 M110.031 196.356 L 108.267 198.222 110.133 196.458 C 111.160 195.487,112.000 194.647,112.000 194.591 C 112.000 194.326,111.671 194.621,110.031 196.356 M134.482 201.600 C 134.482 202.284,134.556 202.564,134.645 202.222 C 134.735 201.880,134.735 201.320,134.645 200.978 C 134.556 200.636,134.482 200.916,134.482 201.600 M137.341 204.089 C 137.341 204.969,137.411 205.329,137.495 204.889 C 137.580 204.449,137.580 203.729,137.495 203.289 C 137.411 202.849,137.341 203.209,137.341 204.089 M134.127 205.511 C 134.127 206.196,134.200 206.476,134.290 206.133 C 134.379 205.791,134.379 205.231,134.290 204.889 C 134.200 204.547,134.127 204.827,134.127 205.511 M137.043 208.617 C 137.062 210.799,137.177 211.378,137.600 211.408 C 137.893 211.429,137.940 211.380,137.703 211.300 C 137.435 211.209,137.226 210.158,137.146 208.509 L 137.019 205.864 137.043 208.617 M152.889 207.644 C 152.471 208.231,152.209 208.711,152.307 208.711 C 152.405 208.711,152.827 208.231,153.244 207.644 C 153.662 207.058,153.924 206.578,153.826 206.578 C 153.728 206.578,153.307 207.058,152.889 207.644 M173.156 211.663 C 173.890 212.504,173.944 212.711,173.502 212.991 C 173.183 213.193,173.143 213.325,173.401 213.328 C 174.312 213.340,174.262 212.504,173.298 211.607 L 172.287 210.667 173.156 211.663 M124.778 211.802 C 125.334 212.940,125.634 213.024,127.159 212.465 C 127.915 212.188,128.344 211.950,128.112 211.936 C 127.880 211.922,127.247 212.080,126.706 212.286 C 125.855 212.609,125.630 212.548,125.059 211.841 C 124.422 211.053,124.411 211.051,124.778 211.802 M131.471 211.451 C 131.913 211.537,132.553 211.533,132.893 211.444 C 133.233 211.355,132.871 211.286,132.089 211.290 C 131.307 211.294,131.029 211.366,131.471 211.451 M95.137 212.470 C 95.006 212.991,94.967 213.486,95.051 213.570 C 95.135 213.653,95.310 213.296,95.441 212.775 C 95.572 212.254,95.610 211.759,95.527 211.675 C 95.443 211.591,95.267 211.949,95.137 212.470 M132.898 214.305 C 133.735 214.380,135.015 214.379,135.743 214.303 C 136.471 214.226,135.787 214.165,134.222 214.166 C 132.658 214.168,132.062 214.230,132.898 214.305 M142.222 216.000 C 142.711 216.279,143.271 216.508,143.467 216.508 C 143.662 216.508,143.422 216.279,142.933 216.000 C 142.444 215.721,141.884 215.492,141.689 215.492 C 141.493 215.492,141.733 215.721,142.222 216.000 M149.511 217.600 C 150.672 218.773,151.702 219.733,151.800 219.733 C 151.898 219.733,151.028 218.773,149.867 217.600 C 148.706 216.427,147.676 215.467,147.578 215.467 C 147.480 215.467,148.350 216.427,149.511 217.600 M147.911 219.911 C 148.973 220.987,149.922 221.867,150.020 221.867 C 150.118 221.867,149.329 220.987,148.267 219.911 C 147.204 218.836,146.255 217.956,146.158 217.956 C 146.060 217.956,146.849 218.836,147.911 219.911 M120.514 219.644 L 119.289 220.978 120.622 219.752 C 121.863 218.612,122.119 218.311,121.848 218.311 C 121.788 218.311,121.188 218.911,120.514 219.644 M93.973 220.800 C 93.973 221.876,94.040 222.316,94.121 221.778 C 94.203 221.240,94.203 220.360,94.121 219.822 C 94.040 219.284,93.973 219.724,93.973 220.800 M151.492 224.533 C 151.492 224.729,151.721 225.289,152.000 225.778 C 152.279 226.267,152.508 226.507,152.508 226.311 C 152.508 226.116,152.279 225.556,152.000 225.067 C 151.721 224.578,151.492 224.338,151.492 224.533 M153.122 229.156 C 153.241 229.938,153.398 230.644,153.469 230.726 C 153.739 231.031,153.537 229.127,153.228 228.444 C 153.003 227.949,152.971 228.164,153.122 229.156 M114.973 233.244 C 114.973 235.102,115.033 235.862,115.106 234.933 C 115.179 234.004,115.179 232.484,115.106 231.556 C 115.033 230.627,114.973 231.387,114.973 233.244 M107.295 230.658 C 107.934 230.737,108.894 230.735,109.429 230.654 C 109.963 230.573,109.440 230.508,108.267 230.510 C 107.093 230.512,106.656 230.579,107.295 230.658 M156.588 232.175 C 156.610 232.749,156.843 233.080,157.251 233.116 C 157.650 233.152,157.691 233.112,157.362 233.009 C 157.076 232.919,156.778 232.495,156.698 232.067 C 156.579 231.426,156.560 231.445,156.588 232.175 M153.710 233.422 C 153.712 234.596,153.779 235.033,153.858 234.394 C 153.937 233.755,153.935 232.795,153.854 232.260 C 153.773 231.726,153.708 232.249,153.710 233.422 M101.427 233.144 C 101.968 233.226,102.768 233.224,103.205 233.139 C 103.642 233.055,103.200 232.988,102.222 232.991 C 101.244 232.993,100.887 233.062,101.427 233.144 M105.338 233.500 C 105.879 233.581,106.679 233.579,107.116 233.495 C 107.553 233.410,107.111 233.343,106.133 233.346 C 105.156 233.349,104.798 233.418,105.338 233.500 M159.200 233.495 C 159.640 233.580,160.360 233.580,160.800 233.495 C 161.240 233.411,160.880 233.341,160.000 233.341 C 159.120 233.341,158.760 233.411,159.200 233.495 M163.289 233.845 C 163.631 233.935,164.191 233.935,164.533 233.845 C 164.876 233.756,164.596 233.682,163.911 233.682 C 163.227 233.682,162.947 233.756,163.289 233.845 M166.844 234.201 C 167.187 234.290,167.747 234.290,168.089 234.201 C 168.431 234.111,168.151 234.038,167.467 234.038 C 166.782 234.038,166.502 234.111,166.844 234.201 M169.689 234.556 C 170.031 234.646,170.591 234.646,170.933 234.556 C 171.276 234.467,170.996 234.394,170.311 234.394 C 169.627 234.394,169.347 234.467,169.689 234.556 M160.805 236.700 C 161.345 236.781,162.145 236.779,162.583 236.695 C 163.020 236.610,162.578 236.543,161.600 236.546 C 160.622 236.549,160.264 236.618,160.805 236.700 M165.244 237.051 C 165.684 237.136,166.404 237.136,166.844 237.051 C 167.284 236.966,166.924 236.897,166.044 236.897 C 165.164 236.897,164.804 236.966,165.244 237.051 M155.581 239.137 C 155.450 239.658,155.412 240.152,155.496 240.236 C 155.579 240.320,155.755 239.962,155.886 239.441 C 156.016 238.920,156.055 238.425,155.971 238.341 C 155.887 238.258,155.712 238.615,155.581 239.137 M174.319 243.200 C 174.319 244.080,174.388 244.440,174.473 244.000 C 174.558 243.560,174.558 242.840,174.473 242.400 C 174.388 241.960,174.319 242.320,174.319 243.200 M113.778 245.511 C 112.617 246.175,113.023 246.182,114.537 245.525 C 115.195 245.239,115.493 245.005,115.200 245.004 C 114.907 245.004,114.267 245.232,113.778 245.511 M147.899 247.022 L 145.956 249.067 148.000 247.123 C 149.899 245.318,150.207 244.978,149.943 244.978 C 149.888 244.978,148.968 245.898,147.899 247.022 M119.467 246.156 C 119.467 246.217,119.987 246.737,120.622 247.311 L 121.778 248.356 120.733 247.200 C 119.760 246.123,119.467 245.881,119.467 246.156 M174.312 248.711 C 174.316 249.493,174.389 249.771,174.474 249.329 C 174.559 248.887,174.556 248.247,174.467 247.907 C 174.378 247.567,174.308 247.929,174.312 248.711 M97.115 248.673 C 97.909 249.526,98.154 249.616,98.715 249.258 C 99.356 248.849,99.355 248.842,98.700 249.050 C 98.271 249.186,97.685 248.971,97.100 248.465 L 96.178 247.665 97.115 248.673 M132.898 252.705 C 133.735 252.780,135.015 252.779,135.743 252.703 C 136.471 252.626,135.787 252.565,134.222 252.566 C 132.658 252.568,132.062 252.630,132.898 252.705 M96.341 256.800 C 97.814 258.370,98.133 258.652,98.133 258.385 C 98.133 258.328,97.373 257.568,96.444 256.696 L 94.756 255.111 96.341 256.800 M131.307 259.200 C 131.307 260.276,131.373 260.716,131.455 260.178 C 131.536 259.640,131.536 258.760,131.455 258.222 C 131.373 257.684,131.307 258.124,131.307 259.200 M134.151 259.911 C 134.151 260.987,134.218 261.427,134.299 260.889 C 134.381 260.351,134.381 259.471,134.299 258.933 C 134.218 258.396,134.151 258.836,134.151 259.911 M130.941 263.822 C 130.941 264.702,131.011 265.062,131.095 264.622 C 131.180 264.182,131.180 263.462,131.095 263.022 C 131.011 262.582,130.941 262.942,130.941 263.822 M162.667 264.178 C 162.363 264.764,162.195 265.244,162.293 265.244 C 162.391 265.244,162.719 264.764,163.022 264.178 C 163.326 263.591,163.494 263.111,163.396 263.111 C 163.298 263.111,162.970 263.591,162.667 264.178 M111.611 264.040 C 111.350 264.355,110.810 264.745,110.412 264.906 C 109.903 265.113,109.854 265.206,110.249 265.222 C 110.557 265.234,111.185 264.844,111.644 264.356 C 112.104 263.867,112.391 263.467,112.283 263.467 C 112.175 263.467,111.873 263.725,111.611 264.040 M133.779 265.067 C 133.783 265.849,133.855 266.127,133.940 265.685 C 134.025 265.242,134.022 264.602,133.933 264.263 C 133.844 263.923,133.775 264.284,133.779 265.067 M133.416 268.444 C 133.416 269.129,133.489 269.409,133.578 269.067 C 133.668 268.724,133.668 268.164,133.578 267.822 C 133.489 267.480,133.416 267.760,133.416 268.444 M117.778 273.667 C 118.120 273.757,118.680 273.757,119.022 273.667 C 119.364 273.578,119.084 273.505,118.400 273.505 C 117.716 273.505,117.436 273.578,117.778 273.667 M124.356 273.673 C 124.796 273.758,125.516 273.758,125.956 273.673 C 126.396 273.588,126.036 273.519,125.156 273.519 C 124.276 273.519,123.916 273.588,124.356 273.673 M135.289 277.689 C 134.841 277.881,134.775 277.994,135.111 277.994 C 135.404 277.994,135.964 277.857,136.356 277.689 C 136.804 277.496,136.870 277.383,136.533 277.383 C 136.240 277.383,135.680 277.521,135.289 277.689 " fill="url(#SVGID_1_)" />
		<path
			id="path4" d="M135.822 188.335 C 136.311 188.435,136.843 188.700,137.005 188.925 C 137.201 189.198,137.251 189.157,137.155 188.800 C 137.074 188.499,136.559 188.242,135.973 188.210 C 135.078 188.162,135.057 188.179,135.822 188.335 M144.800 192.974 C 145.924 193.044,147.764 193.044,148.889 192.974 C 150.013 192.903,149.093 192.846,146.844 192.846 C 144.596 192.846,143.676 192.903,144.800 192.974 M110.033 196.000 L 107.911 198.222 110.133 196.100 C 112.198 194.129,112.518 193.778,112.256 193.778 C 112.201 193.778,111.201 194.778,110.033 196.000 M157.034 201.511 C 156.944 201.658,157.419 201.790,158.090 201.805 C 158.841 201.822,159.134 201.721,158.854 201.544 C 158.280 201.179,157.249 201.161,157.034 201.511 M134.490 205.333 C 134.494 206.116,134.566 206.394,134.651 205.951 C 134.737 205.509,134.733 204.869,134.644 204.529 C 134.555 204.189,134.486 204.551,134.490 205.333 M134.141 209.422 C 134.141 210.302,134.211 210.662,134.295 210.222 C 134.380 209.782,134.380 209.062,134.295 208.622 C 134.211 208.182,134.141 208.542,134.141 209.422 M170.667 208.467 C 170.667 208.528,171.187 209.048,171.822 209.622 L 172.978 210.667 171.933 209.511 C 170.960 208.434,170.667 208.192,170.667 208.467 M173.873 212.038 C 174.313 212.619,174.291 212.759,173.696 213.194 C 173.324 213.466,173.191 213.689,173.400 213.689 C 174.316 213.689,174.718 212.608,174.033 211.982 C 173.405 211.408,173.397 211.411,173.873 212.038 M132.898 213.950 C 133.735 214.025,135.015 214.024,135.743 213.947 C 136.471 213.871,135.787 213.809,134.222 213.811 C 132.658 213.812,132.062 213.875,132.898 213.950 M149.511 217.956 C 150.275 218.738,150.980 219.378,151.078 219.378 C 151.175 219.378,150.630 218.738,149.867 217.956 C 149.103 217.173,148.398 216.533,148.300 216.533 C 148.202 216.533,148.747 217.173,149.511 217.956 M169.985 217.333 C 170.067 217.382,170.613 217.822,171.200 218.311 L 172.267 219.200 171.405 218.222 C 170.931 217.684,170.384 217.244,170.190 217.244 C 169.996 217.244,169.904 217.284,169.985 217.333 M148.089 219.733 C 149.052 220.711,149.920 221.511,150.018 221.511 C 150.115 221.511,149.408 220.711,148.444 219.733 C 147.481 218.756,146.613 217.956,146.516 217.956 C 146.418 217.956,147.126 218.756,148.089 219.733 M120.159 219.644 L 118.933 220.978 120.267 219.752 C 121.508 218.612,121.763 218.311,121.492 218.311 C 121.433 218.311,120.833 218.911,120.159 219.644 M102.671 230.651 C 103.113 230.737,103.753 230.733,104.093 230.644 C 104.433 230.555,104.071 230.486,103.289 230.490 C 102.507 230.494,102.229 230.566,102.671 230.651 M107.111 231.001 C 107.453 231.090,108.013 231.090,108.356 231.001 C 108.698 230.911,108.418 230.838,107.733 230.838 C 107.049 230.838,106.769 230.911,107.111 231.001 M114.606 233.422 C 114.607 234.791,114.671 235.308,114.748 234.570 C 114.825 233.832,114.824 232.712,114.746 232.081 C 114.667 231.450,114.604 232.053,114.606 233.422 M154.066 233.422 C 154.068 234.596,154.134 235.033,154.213 234.394 C 154.292 233.755,154.291 232.795,154.210 232.260 C 154.128 231.726,154.064 232.249,154.066 233.422 M98.222 232.423 C 98.564 232.512,99.124 232.512,99.467 232.423 C 99.809 232.333,99.529 232.260,98.844 232.260 C 98.160 232.260,97.880 232.333,98.222 232.423 M110.754 233.493 C 111.340 233.587,111.953 233.850,112.115 234.077 C 112.314 234.355,112.363 234.316,112.266 233.956 C 112.178 233.627,111.655 233.403,110.906 233.372 C 109.791 233.326,109.778 233.336,110.754 233.493 M163.467 234.206 C 163.907 234.291,164.627 234.291,165.067 234.206 C 165.507 234.122,165.147 234.052,164.267 234.052 C 163.387 234.052,163.027 234.122,163.467 234.206 M159.733 236.334 C 160.076 236.423,160.636 236.423,160.978 236.334 C 161.320 236.245,161.040 236.171,160.356 236.171 C 159.671 236.171,159.391 236.245,159.733 236.334 M171.467 237.401 C 171.809 237.490,172.369 237.490,172.711 237.401 C 173.053 237.311,172.773 237.238,172.089 237.238 C 171.404 237.238,171.124 237.311,171.467 237.401 M120.000 247.111 C 120.764 247.893,121.469 248.533,121.567 248.533 C 121.664 248.533,121.119 247.893,120.356 247.111 C 119.592 246.329,118.887 245.689,118.789 245.689 C 118.691 245.689,119.236 246.329,120.000 247.111 M133.244 253.057 C 133.880 253.136,134.920 253.136,135.556 253.057 C 136.191 252.978,135.671 252.914,134.400 252.914 C 133.129 252.914,132.609 252.978,133.244 253.057 M96.533 257.422 C 97.694 258.596,98.724 259.556,98.822 259.556 C 98.920 259.556,98.050 258.596,96.889 257.422 C 95.728 256.249,94.698 255.289,94.600 255.289 C 94.502 255.289,95.372 256.249,96.533 257.422 M131.645 258.311 C 131.649 259.093,131.722 259.371,131.807 258.929 C 131.892 258.487,131.889 257.847,131.800 257.507 C 131.711 257.167,131.641 257.529,131.645 258.311 M133.808 260.622 C 133.808 262.089,133.871 262.689,133.948 261.956 C 134.025 261.222,134.025 260.022,133.948 259.289 C 133.871 258.556,133.808 259.156,133.808 260.622 M130.571 270.578 C 130.571 271.262,130.645 271.542,130.734 271.200 C 130.823 270.858,130.823 270.298,130.734 269.956 C 130.645 269.613,130.571 269.893,130.571 270.578 M124.533 274.023 C 124.876 274.112,125.436 274.112,125.778 274.023 C 126.120 273.933,125.840 273.860,125.156 273.860 C 124.471 273.860,124.191 273.933,124.533 274.023 " fill="url(#SVGID_1_)" />
	</g>
</svg>