<svg xmlns="http://www.w3.org/2000/svg" xmlns:xlink="http://www.w3.org/1999/xlink" viewBox="0 0 226.77 82.82"><defs><style>.cls-1{fill:#94589f;}.cls-2{fill:#2eccff;}.cls-3{fill:url(#Sfumatura_senza_nome_25);}.cls-4{fill:url(#Sfumatura_senza_nome_25-2);}.cls-5{fill:url(#Sfumatura_senza_nome_25-3);}.cls-6{fill:url(#Sfumatura_senza_nome_25-4);}.cls-7{fill:#dc3aff;}.cls-8{fill:url(#Sfumatura_senza_nome_265);}.cls-9{fill:url(#Sfumatura_senza_nome_265-2);}.cls-10{fill:url(#Sfumatura_senza_nome_265-3);}.cls-11{fill:url(#Sfumatura_senza_nome_265-4);}.cls-12{fill:url(#Sfumatura_senza_nome_265-5);}.cls-13{fill:url(#Sfumatura_senza_nome_265-6);}.cls-14{fill:url(#Sfumatura_senza_nome_265-7);}</style><linearGradient id="Sfumatura_senza_nome_25" x1="145.24" y1="55.61" x2="145.24" y2="13.74" gradientUnits="userSpaceOnUse"><stop offset="0" stop-color="#9459a0"/><stop offset="1" stop-color="#4bc2f1"/></linearGradient><linearGradient id="Sfumatura_senza_nome_25-2" x1="159.66" y1="55.61" x2="159.66" y2="13.74" xlink:href="#Sfumatura_senza_nome_25"/><linearGradient id="Sfumatura_senza_nome_25-3" x1="181.13" y1="56.18" x2="181.13" y2="25.4" xlink:href="#Sfumatura_senza_nome_25"/><linearGradient id="Sfumatura_senza_nome_25-4" x1="212.33" y1="56.18" x2="212.33" y2="25.4" xlink:href="#Sfumatura_senza_nome_25"/><linearGradient id="Sfumatura_senza_nome_265" x1="145.24" y1="55.61" x2="145.24" y2="13.74" gradientUnits="userSpaceOnUse"><stop offset="0" stop-color="#dc3aff"/><stop offset="1" stop-color="#2eccff"/></linearGradient><linearGradient id="Sfumatura_senza_nome_265-2" x1="159.66" y1="55.61" x2="159.66" y2="13.74" xlink:href="#Sfumatura_senza_nome_265"/><linearGradient id="Sfumatura_senza_nome_265-3" x1="100.22" y1="56.28" x2="100.22" y2="20.17" xlink:href="#Sfumatura_senza_nome_265"/><linearGradient id="Sfumatura_senza_nome_265-4" x1="123.21" y1="56.18" x2="123.21" y2="25.4" xlink:href="#Sfumatura_senza_nome_265"/><linearGradient id="Sfumatura_senza_nome_265-5" x1="181.13" y1="56.18" x2="181.13" y2="25.4" xlink:href="#Sfumatura_senza_nome_265"/><linearGradient id="Sfumatura_senza_nome_265-6" x1="212.33" y1="56.18" x2="212.33" y2="25.4" xlink:href="#Sfumatura_senza_nome_265"/><linearGradient id="Sfumatura_senza_nome_265-7" x1="43.6" y1="82.82" x2="43.6" y2="0" xlink:href="#Sfumatura_senza_nome_265"/></defs><title>Ресурс 1</title><g id="Слой_2" data-name="Слой 2"><g id="Logo_Telleee" data-name="Logo Telleee"><g id="Logo_Tellee_payoff_Color" data-name="Logo Tellee payoff_Color"><circle class="cls-1" cx="13.7" cy="41.46" r="4.25"/><path class="cls-2" d="M112.38,65.3v0a1.76,1.76,0,0,0,1.31-1.62c0-1-.88-1.59-2.22-1.59h-3v7h2.76c1.9,0,2.87-.86,2.87-2.15A1.82,1.82,0,0,0,112.38,65.3Zm-1.87-2.1h.57a.74.74,0,0,1,.79.76.87.87,0,0,1-1,.9h-.36ZM110.9,68h-.39V66h.58c.7,0,1,.36,1,.91A1,1,0,0,1,110.9,68Z"/><polygon class="cls-2" points="119.23 63.38 117.18 63.38 117.18 64.77 119.19 64.77 119.19 66.09 117.18 66.09 117.18 67.78 119.65 67.78 119.65 69.1 115.16 69.1 115.16 62.07 119.23 62.07 119.23 63.38"/><path class="cls-2" d="M122.15,69.1V66.37l-2-4.2,2.18-.2c.34.92.7,1.86,1,3.08h0A33,33,0,0,1,124.62,62l1.61.2-2.06,4.2V69.1Z"/><path class="cls-2" d="M129.85,62a3.39,3.39,0,0,0-3.34,3.55c0,2.1,1.28,3.72,3.34,3.72s3.34-1.62,3.34-3.72A3.39,3.39,0,0,0,129.85,62Zm0,5.8c-.9,0-1.23-.92-1.23-2.25s.37-2.09,1.23-2.09,1.23.85,1.23,2.09S130.75,67.75,129.85,67.75Z"/><path class="cls-2" d="M140.32,69.1H139A37.08,37.08,0,0,1,136,65h0V69.1h-1.6v-7h1.47a34.92,34.92,0,0,1,2.9,4h0v-4h1.59Z"/><path class="cls-2" d="M144.37,62.07h-2.62v7h2.54a3.51,3.51,0,0,0,3.8-3.72C148.09,63.68,147.05,62.07,144.37,62.07Zm-.07,5.71h-.52v-4.4h.59c.88,0,1.64.74,1.64,2C146,66.81,145.46,67.78,144.3,67.78Z"/><path class="cls-2" d="M154.42,69.1V66.37l-2-4.2,2.18-.2c.35.92.7,1.86,1,3.08h0A28.26,28.26,0,0,1,156.9,62l1.61.2-2.06,4.2V69.1Z"/><path class="cls-2" d="M162.13,62a3.39,3.39,0,0,0-3.34,3.55c0,2.1,1.27,3.72,3.34,3.72s3.34-1.62,3.34-3.72A3.39,3.39,0,0,0,162.13,62Zm0,5.8c-.91,0-1.23-.92-1.23-2.25s.36-2.09,1.23-2.09,1.22.85,1.22,2.09S163,67.75,162.13,67.75Z"/><path class="cls-2" d="M168.59,62.07v3.67c0,1.27.18,2,1,2,.67,0,1.05-.7,1.05-2V62.07h1.75v4.25a2.65,2.65,0,0,1-2.9,2.9c-1.72,0-3-.75-3-2.85v-4.3Z"/><path class="cls-2" d="M178.11,66a2.14,2.14,0,0,0,1.13-2c0-1.16-.86-1.88-2.44-1.88h-3v7h2V66.44h.53l1.06,2.78,2.17-.23Zm-1.7-.87h-.58V63.38h.54c.43,0,.84.17.84.87A.83.83,0,0,1,176.41,65.11Z"/><path class="cls-2" d="M186.55,62.07h-2.61v7h2.53a3.51,3.51,0,0,0,3.8-3.72C190.27,63.68,189.24,62.07,186.55,62.07Zm-.07,5.71H186v-4.4h.59c.88,0,1.64.74,1.64,2C188.19,66.81,187.64,67.78,186.48,67.78Z"/><path class="cls-2" d="M194.92,62.07h-1.7l-2.73,7h1.58l.64-1.68h2.09l.52,1.68h2.15Zm-1.86,4.24c.25-.84.48-1.51.74-2.51h0c.24,1,.43,1.67.65,2.51Z"/><polygon class="cls-2" points="199.01 69.1 199.01 63.38 197.07 63.38 197.07 62.07 202.97 62.07 202.97 63.38 201.04 63.38 201.04 69.1 199.01 69.1"/><path class="cls-2" d="M207,62.07h-1.7l-2.74,7h1.59l.64-1.68h2.08l.53,1.68h2.15Zm-1.87,4.24c.25-.84.48-1.51.74-2.51h0c.24,1,.43,1.67.66,2.51Z"/><rect class="cls-3" x="140.99" y="13.74" width="8.5" height="41.87" rx="0.4" ry="0.4"/><rect class="cls-4" x="155.41" y="13.74" width="8.5" height="41.87" rx="0.4" ry="0.4"/><path class="cls-5" d="M181.8,25.4c-9.14,0-15.11,5.87-15.11,14.74,0,6.29,2.87,11.34,7.54,14,9.34,4.82,17.79.09,20.54-5.2a.23.23,0,0,0-.31-.32c-7.2,3.43-13.2,2.16-15.67-.46a3.83,3.83,0,0,1-.29-.28,8.7,8.7,0,0,1-2.37-5.55.41.41,0,0,1,.4-.42H195a.55.55,0,0,0,.55-.5C196,35,193.34,25.4,181.8,25.4Zm5.12,12.23H176.64a.4.4,0,0,1-.4-.39A7.39,7.39,0,0,1,178,32a5.47,5.47,0,0,1,4.06-1.55,5.24,5.24,0,0,1,3.44,1.35c1.47,1.32,1.81,3.35,1.78,5.46A.39.39,0,0,1,186.92,37.63Z"/><path class="cls-6" d="M213,25.4c-9.14,0-15.12,5.87-15.12,14.74,0,6.29,2.88,11.34,7.55,14,9.34,4.82,17.79.09,20.54-5.2a.23.23,0,0,0-.31-.32c-7.2,3.43-13.21,2.16-15.68-.46l-.28-.28a8.65,8.65,0,0,1-2.37-5.55.41.41,0,0,1,.4-.42h18.43a.56.56,0,0,0,.56-.5C227.19,35,224.53,25.4,213,25.4Zm5.12,12.23H207.83a.41.41,0,0,1-.4-.39A7.44,7.44,0,0,1,209.24,32a5.47,5.47,0,0,1,4.06-1.55,5.19,5.19,0,0,1,3.43,1.35c1.48,1.32,1.82,3.35,1.79,5.46A.39.39,0,0,1,218.12,37.63Z"/><circle class="cls-7" cx="13.7" cy="41.46" r="4.25"/><rect class="cls-8" x="140.99" y="13.74" width="8.5" height="41.87" rx="0.4" ry="0.4"/><rect class="cls-9" x="155.41" y="13.74" width="8.5" height="41.87" rx="0.4" ry="0.4"/><path class="cls-10" d="M108.84,50.85a.24.24,0,0,1,.3.33c-2.17,3.82-8.9,7.37-14.67,3.27l-.11-.07c-2.12-1.6-3.09-4.15-3.09-7.83V22.37a.4.4,0,0,1,.31-.39l7.71-1.81a.4.4,0,0,1,.48.39l0,6.78H107a.43.43,0,0,1,.42.4v3.44a.4.4,0,0,1-.39.4h-7.3V44.35a9.67,9.67,0,0,0,.88,4.68h0C102,51.05,105.37,52.19,108.84,50.85Z"/><path class="cls-11" d="M123.88,25.4c-9.14,0-15.12,5.87-15.12,14.74,0,6.29,2.88,11.34,7.55,14,9.34,4.82,17.79.09,20.54-5.2a.23.23,0,0,0-.31-.32c-7.2,3.43-13.21,2.16-15.68-.46l-.28-.28a8.65,8.65,0,0,1-2.37-5.55.41.41,0,0,1,.4-.42H137a.56.56,0,0,0,.56-.5C138.07,35,135.41,25.4,123.88,25.4ZM129,37.63H118.71a.41.41,0,0,1-.4-.39A7.44,7.44,0,0,1,120.12,32a5.47,5.47,0,0,1,4.06-1.55,5.19,5.19,0,0,1,3.43,1.35c1.48,1.32,1.82,3.35,1.79,5.46A.39.39,0,0,1,129,37.63Z"/><path class="cls-12" d="M181.8,25.4c-9.14,0-15.11,5.87-15.11,14.74,0,6.29,2.87,11.34,7.54,14,9.34,4.82,17.79.09,20.54-5.2a.23.23,0,0,0-.31-.32c-7.2,3.43-13.2,2.16-15.67-.46a3.83,3.83,0,0,1-.29-.28,8.7,8.7,0,0,1-2.37-5.55.41.41,0,0,1,.4-.42H195a.55.55,0,0,0,.55-.5C196,35,193.34,25.4,181.8,25.4Zm5.12,12.23H176.64a.4.4,0,0,1-.4-.39A7.39,7.39,0,0,1,178,32a5.47,5.47,0,0,1,4.06-1.55,5.24,5.24,0,0,1,3.44,1.35c1.47,1.32,1.81,3.35,1.78,5.46A.39.39,0,0,1,186.92,37.63Z"/><path class="cls-13" d="M213,25.4c-9.14,0-15.12,5.87-15.12,14.74,0,6.29,2.88,11.34,7.55,14,9.34,4.82,17.79.09,20.54-5.2a.23.23,0,0,0-.31-.32c-7.2,3.43-13.21,2.16-15.68-.46l-.28-.28a8.65,8.65,0,0,1-2.37-5.55.41.41,0,0,1,.4-.42h18.43a.56.56,0,0,0,.56-.5C227.19,35,224.53,25.4,213,25.4Zm5.12,12.23H207.83a.41.41,0,0,1-.4-.39A7.44,7.44,0,0,1,209.24,32a5.47,5.47,0,0,1,4.06-1.55,5.19,5.19,0,0,1,3.43,1.35c1.48,1.32,1.82,3.35,1.79,5.46A.39.39,0,0,1,218.12,37.63Z"/><path class="cls-14" d="M86.83,65.22c-5.51,1.07-13.09-.1-17.65-4.6l9.69-9.68a13.5,13.5,0,0,0,0-19.06L50.94,4A13.48,13.48,0,0,0,31.87,4L3.94,31.88a13.5,13.5,0,0,0,0,19.06L31.87,78.87a13.48,13.48,0,0,0,19.07,0l9.59-9.59c7,4,16.78,4.24,26.55-3.5A.31.31,0,0,0,86.83,65.22ZM48,75.78a9.36,9.36,0,0,1-13.25,0L7,48A9.38,9.38,0,0,1,7,34.78L34.78,7A9.36,9.36,0,0,1,48,7L75.78,34.78a9.38,9.38,0,0,1,0,13.26Z"/><path class="cls-2" d="M45.66,13.74v28a4.26,4.26,0,1,0-8.5,0v-28a4.26,4.26,0,1,1,8.5,0Z"/><path class="cls-2" d="M27.55,45.1a4.49,4.49,0,0,1-4.25-4.7V55.28A4.49,4.49,0,0,0,27.55,60a4.49,4.49,0,0,0,4.25-4.7V40.4A4.49,4.49,0,0,1,27.55,45.1Z"/><path class="cls-2" d="M27.55,22.94a4.41,4.41,0,0,0-4.25,4.54V41.84a4.4,4.4,0,0,1,4.25-4.53,4.4,4.4,0,0,1,4.25,4.53V27.48A4.41,4.41,0,0,0,27.55,22.94Z"/><path class="cls-2" d="M55.26,22.94A4.41,4.41,0,0,0,51,27.48V41.84a4.26,4.26,0,1,1,8.5,0V27.48A4.41,4.41,0,0,0,55.26,22.94Z"/><path class="cls-2" d="M55.26,45.66A4.4,4.4,0,0,1,51,41.13V55.46A4.39,4.39,0,0,0,55.26,60h0a4.39,4.39,0,0,0,4.25-4.52V41.13A4.4,4.4,0,0,1,55.26,45.66Z"/><path class="cls-7" d="M37.16,41.63V69.49a4.34,4.34,0,0,0,4.25,4.42,4.16,4.16,0,0,0,3-1.3,4.47,4.47,0,0,0,1.25-3.12V41.63a4.51,4.51,0,0,1-1.25,3.13,4.15,4.15,0,0,1-3,1.29Z"/><path class="cls-7" d="M37.78,39.78c.39-.4,3,1.56,3.63,1.56a5.71,5.71,0,0,0,2.32-.48A2.59,2.59,0,0,0,45,39.78c.39.4.63,7.91.63,8.52s-.16,7.91-.41,8.27a3.08,3.08,0,0,1-.84,1.82,4.15,4.15,0,0,1-3,1.29,3.25,3.25,0,0,1-3.18-2.5c-.64-.38-1.07-8.06-1.07-8.88C37.16,47.69,37.4,40.18,37.78,39.78Z"/><path class="cls-7" d="M45.66,41.63a4.51,4.51,0,0,1-1.25,3.13,4.15,4.15,0,0,1-3,1.29,4.34,4.34,0,0,1-4.25-4.42,4.5,4.5,0,0,1,1.25-3.12,4.13,4.13,0,0,1,6,0A4.5,4.5,0,0,1,45.66,41.63Z"/><ellipse class="cls-7" cx="41.41" cy="41.55" rx="4.25" ry="4.33"/><circle class="cls-7" cx="41.41" cy="41.46" r="4.25"/><circle class="cls-7" cx="55.26" cy="41.46" r="4.25"/><circle class="cls-7" cx="69.11" cy="41.46" r="4.25"/><circle class="cls-7" cx="27.55" cy="41.46" r="4.25"/></g></g></g></svg>